# xmcd
#
# Track frame offsets: 
#        150
#        17945
#        45061
#        64722
#        92690
#        118245
#        126168
#        147262
#
# Disc length: 2387 seconds
#
# Revision: 0
# Processed by: cddbd v1.5.2PL0 Copyright (c) Steve Scherf et al.
# Submitted via: ExactAudioCopy v1.2
#
DISCID=68095108
DTITLE=Big Daddy T - Judas Goat
DYEAR=2018
DGENRE=Blues
TTITLE0=Let It Burn
TTITLE1=Nothing Left to Do (But Cry)
TTITLE2=Yesterday's Dreams
TTITLE3=Jockey Full of Bourbon
TTITLE4=God's Not Dead
TTITLE5=Good Time Jake
TTITLE6=Simon Pure Labrick Blues
TTITLE7=Judas Goat
EXTD=
EXTT0=
EXTT1=
EXTT2=
EXTT3=
EXTT4=
EXTT5=
EXTT6=
EXTT7=
PLAYORDER=
